<?xml version="1.0" encoding="UTF-8"?>
<svg width="200" height="200" viewBox="0 0 200 200" xmlns="http://www.w3.org/2000/svg">
  <!-- Background -->
  <rect width="200" height="200" fill="white" rx="12"/>
  
  <!-- Title moved down -->
  <g id="title">
    <text x="100" y="55" text-anchor="middle" font-family="Arial, sans-serif" font-siz="42" font-weight="bold" fill="#333">semVersie</text>
    <text x="100" y="73" text-anchor="middle" font-family="monospace" font-size="11" fill="#666">feat: fix: docs: chore:</text>
  </g>
  
  <!-- Git tree structure moved down -->
  <g id="git-tree">
    <!-- Main branch line -->
    <path d="M40 130 L160 130" stroke="#333" stroke-width="4" fill="none"/>
    
    <!-- Feature branch -->
    <path d="M70 130 Q 85 110, 100 100 L 130 100" stroke="#666" stroke-width="3" fill="none"/>
    <path d="M130 100 Q 145 110, 160 130" stroke="#666" stroke-width="3" fill="none"/>
    
    <!-- Release branch -->
    <path d="M110 130 Q 125 150, 140 160 L 160 160" stroke="#666" stroke-width="3" fill="none"/>
    
    <!-- Git nodes (commits) -->
    <circle cx="40" cy="130" r="5" fill="#333"/>
    <circle cx="70" cy="130" r="5" fill="#333"/>
    <circle cx="100" cy="100" r="4" fill="#666"/>
    <circle cx="110" cy="130" r="5" fill="#333"/>
    <circle cx="130" cy="100" r="4" fill="#666"/>
    <circle cx="140" cy="160" r="4" fill="#666"/>
    <circle cx="160" cy="130" r="5" fill="#333"/>
    <circle cx="160" cy="160" r="4" fill="#666"/>
  </g>
  
  <!-- Version tags -->
  <g id="version-tags">
    <text x="40" y="119" text-anchor="middle" fill="#333" font-family="monospace" font-size="8" font-weight="bold">v1.0.0</text>
    
    <text x="110" y="119" text-anchor="middle" fill="#333" font-family="monospace" font-size="8" font-weight="bold">v1.1.0</text>
    
    <text x="160" y="119" text-anchor="middle" fill="#333" font-family="monospace" font-size="8" font-weight="bold">v2.0.0</text>
  </g>

</svg>